# xmcd
#
# Track frame offsets:
# 150
# 14244
# 31990
# 48793
# 70851
# 88500
# 105809
# 124584
# 140909
# 155697
# 182695
# 200057
# 217595
# 239592
# 269497
#
# Disc length: 3633 seconds
#
#
# Revision: 1
# Processed by: cddbd v1.5.2PL0 Copyright (c) Steve Scherf et al.
# Submitted via: FreeRIP 2.96 
#
DISCID=d40e2f0f
DTITLE=Chiquito and Bordoneio - Volume 8
DYEAR=2006
DGENRE=Pop
TTITLE0=Rincão dos Touros
TTITLE1=Ah! Se eu pudesse
TTITLE2=Tô querendo te ver
TTITLE3=Enforquilhado
TTITLE4=Acertei na mega-sena
TTITLE5=Anunciação
TTITLE6=Quem sabe amanhã
TTITLE7=Nos Bailes do cafundo
TTITLE8=Esfrega
TTITLE9=Só para amar
TTITLE10=Nosso romance
TTITLE11=Leão domado
TTITLE12=Nas horas boa do mate
TTITLE13=Tramado na lida
TTITLE14=
EXTD=
EXTT0=Rincão dos Touros
EXTT1=Ah! Se eu pudesse
EXTT2=Tô querendo te ver
EXTT3=Enforquilhado
EXTT4=Acertei na mega-sena
EXTT5=Anunciação
EXTT6=Quem sabe amanhã
EXTT7=Nos Bailes do cafundo
EXTT8=Esfrega
EXTT9=Só para amar
EXTT10=Nosso romance
EXTT11=Leão domado
EXTT12=Nas horas boa do mate
EXTT13=Tramado na lida
EXTT14=
PLAYORDER=
